<?xml version="1.0" encoding="iso-8859-1"?>
<!-- Uploaded to: SVG Repo, www.svgrepo.com, Generator: SVG Repo Mixer Tools -->
<svg fill="#000000" height="800px" width="800px" version="1.1" id="Layer_1" xmlns="http://www.w3.org/2000/svg" xmlns:xlink="http://www.w3.org/1999/xlink" 
	 viewBox="0 0 512 512" xml:space="preserve">
<g>
	<g>
		<g>
			<path d="M256.001,224.956c-27.585,0-50.026,22.442-50.026,50.028c0,27.587,22.443,50.029,50.026,50.029
				c27.585,0,50.028-22.443,50.028-50.029S283.586,224.956,256.001,224.956z M256,308.768c-18.627,0-33.78-15.155-33.78-33.783
				s15.153-33.782,33.78-33.782c18.628,0,33.782,15.154,33.782,33.782C289.782,293.614,274.628,308.768,256,308.768z"/>
			<path d="M215.213,131.127h81.577c4.487,0,8.123-3.637,8.123-8.123c0-26.97-21.942-48.912-48.912-48.912
				c-26.97,0-48.912,21.942-48.912,48.912C207.09,127.49,210.727,131.127,215.213,131.127z M256.002,90.338
				c15.209,0,28.024,10.447,31.644,24.543h-63.289C227.979,100.787,240.794,90.338,256.002,90.338z"/>
			<path d="M511.384,395.032l-59.487-157.01c-0.666-1.76-1.924-3.233-3.556-4.169l-83.623-47.946v-30.438
				c0-34.118-10.26-66.903-29.672-94.812c-18.957-27.257-45.267-48.039-76.086-60.099c-1.904-0.745-4.017-0.745-5.921,0
				c-30.817,12.061-57.126,32.843-76.084,60.099c-19.413,27.91-29.673,60.695-29.673,94.812v30.438l-83.621,47.946
				c-1.632,0.936-2.889,2.41-3.556,4.169L0.616,395.032c-0.945,2.495-0.605,5.297,0.912,7.493c1.516,2.197,4.015,3.508,6.685,3.508
				H59.98h87.813c2.268,11.821,11.926,21.04,23.965,22.651c-2.266,6.963-3.441,14.271-3.441,21.61
				c0,24.896,13.409,48.121,34.992,60.613c1.259,0.728,2.663,1.093,4.069,1.093c1.405,0,2.811-0.364,4.069-1.093
				c21.588-12.492,34.997-35.719,34.997-60.613c0-7.247-1.145-14.466-3.354-21.351h25.825c-2.209,6.884-3.353,14.103-3.353,21.351
				c0,24.895,13.407,48.121,34.99,60.613c1.258,0.728,2.663,1.093,4.069,1.093c1.405,0,2.811-0.364,4.069-1.093
				c21.588-12.492,34.997-35.719,34.997-60.613c0-7.338-1.176-14.645-3.441-21.608c12.036-1.612,21.694-10.831,23.961-22.651h87.817
				h0.022h51.742c2.669,0,5.167-1.311,6.685-3.507C511.99,400.329,512.33,397.528,511.384,395.032z M54.371,389.788H19.977
				L74.266,246.5l73.016-41.865v37.288l-44.599,25.575c-1.632,0.936-2.89,2.41-3.556,4.169L54.371,389.788z M147.283,375v14.786
				H71.745l41.545-109.643l33.993-19.493V375z M207.378,494.24c-14.182-10.016-22.814-26.444-22.814-43.946
				c0-7.333,1.527-14.628,4.445-21.351h36.744c2.918,6.723,4.445,14.017,4.445,21.351
				C230.199,467.794,221.564,484.222,207.378,494.24z M304.621,494.24c-14.182-10.016-22.813-26.445-22.813-43.946
				c0-7.335,1.526-14.63,4.444-21.351h36.746c2.918,6.724,4.445,14.018,4.445,21.351
				C327.441,467.794,318.807,484.222,304.621,494.24z M348.473,190.613v56.016v120.249H238.5c-4.487,0-8.123,3.637-8.123,8.123
				s3.636,8.123,8.123,8.123h109.972v14.786v2.795c0,6.612-5.379,11.992-11.99,11.992h-8.418h-46.881h-50.363h-46.879h-8.417
				c-6.614,0-11.996-5.38-11.996-11.992v-2.794v-14.786h47.895c4.487,0,8.123-3.637,8.123-8.123s-3.636-8.123-8.123-8.123h-47.895
				v-120.25v-56.016v-35.144c0-61.157,36.19-115.21,92.472-138.588c56.282,23.376,92.472,77.428,92.472,138.588V190.613z
				 M364.718,389.788v-14.786V260.65l33.998,19.494l41.544,109.643H364.718z M457.633,389.788L457.633,389.788l-44.756-118.121
				c-0.667-1.76-1.924-3.233-3.556-4.169l-44.603-25.575v-37.288l73.018,41.865l54.288,143.288H457.633z"/>
		</g>
	</g>
</g>
</svg>